<?xml version="1.0" encoding="utf-8"?>
<!-- Generator: Adobe Illustrator 24.1.0, SVG Export Plug-In . SVG Version: 6.00 Build 0)  -->
<svg version="1.1" xmlns="http://www.w3.org/2000/svg" xmlns:xlink="http://www.w3.org/1999/xlink" x="0px" y="0px"
	 viewBox="0 0 72 72" style="enable-background:new 0 0 72 72;" xml:space="preserve">
<style type="text/css">
	.st0{fill:#FFFFFF;}
</style>
<g id="Layer_1">
	<g id="Layer_1_1_">
	</g>
	<ellipse cx="36" cy="36" rx="36" ry="36"/>
	
		<image style="display:none;overflow:visible;" width="284" height="160" xlink:href="../../Temp Images/Initial Logo.jpg"  transform="matrix(0.5255 0 0 0.5255 -36.832 -6.9293)">
	</image>
</g>
<g id="Logo_New">
	<g>
		<path class="st0" d="M15.6,23.5L15.6,23.5c-2.2,0-4,1.8-4,4v17c0,2.2,1.8,4,4,4h0c2.2,0,4-1.8,4-4v-17
			C19.6,25.3,17.8,23.5,15.6,23.5z"/>
		<path class="st0" d="M58.6,23.5H44.3c-0.8,0-1.6,0.2-2.2,0.7c-1.1,0.7-1.8,1.9-1.8,3.3v17c0,2.2,1.8,4,4,4c2.2,0,4-1.8,4-4v-6
			h10.2c2.1,0,3.9-1.7,3.9-3.9v-7.2C62.4,25.2,60.7,23.5,58.6,23.5z"/>
		<path class="st0" d="M36.1,25.4c-1.5-1.5-4-1.5-5.5,0l-8.1,8.1c0,0-0.1,0.1-0.1,0.1c-0.8,0.8-1.1,1.8-1.1,2.8c0,1,0.4,2,1.1,2.8
			c0,0,0.1,0.1,0.1,0.1l8.1,8.1c1.5,1.5,4,1.5,5.5,0s1.5-4,0-5.5l-5.5-5.5l5.5-5.5C37.6,29.4,37.6,26.9,36.1,25.4z"/>
	</g>
</g>
</svg>
