<?xml version="1.0" encoding="utf-8"?>
<!-- Generator: Adobe Illustrator 24.1.0, SVG Export Plug-In . SVG Version: 6.00 Build 0)  -->
<svg version="1.1" id="Layer_1" xmlns="http://www.w3.org/2000/svg" xmlns:xlink="http://www.w3.org/1999/xlink" x="0px" y="0px"
	 viewBox="0 0 289 41" style="enable-background:new 0 0 289 41;" xml:space="preserve">
<style type="text/css">
	.st0{display:none;fill:#FF68FF;}
	.st1{fill:#FFFFFF;}
</style>
<path class="st0" d="M116,36.8V4.6h11.7c2.2,0,4.1,0.4,5.7,1.2c1.7,0.8,2.9,1.9,3.9,3.5c0.9,1.5,1.4,3.3,1.4,5.4
	c0,2.1-0.5,3.9-1.4,5.4c-0.9,1.5-2.2,2.7-3.9,3.5c-1.6,0.8-3.5,1.2-5.7,1.2h-6.6v12.1H116z M121.1,20.1h6.7c1.2,0,2.2-0.2,3-0.7
	c0.9-0.5,1.5-1.1,2-1.9c0.5-0.8,0.7-1.8,0.7-2.9c0-1.1-0.2-2.1-0.7-2.9c-0.5-0.8-1.1-1.5-2-1.9c-0.9-0.5-1.9-0.7-3-0.7h-6.7V20.1z"
	/>
<path class="st1" d="M140.3,3.2h-20c-1.1,0-2.2,0.3-3.1,1c-1.5,1-2.5,2.7-2.5,4.6v23.8c0,3.1,2.5,5.6,5.6,5.6s5.6-2.5,5.6-5.6v-8.4
	h14.3c2.9,0,5.5-2.4,5.5-5.5V8.7C145.7,5.6,143.3,3.2,140.3,3.2z"/>
</svg>
