<?xml version="1.0" encoding="utf-8"?>
<!-- Generator: Adobe Illustrator 24.1.0, SVG Export Plug-In . SVG Version: 6.00 Build 0)  -->
<svg version="1.1" id="Layer_1" xmlns="http://www.w3.org/2000/svg" xmlns:xlink="http://www.w3.org/1999/xlink" x="0px" y="0px"
	 viewBox="0 0 289 41" style="enable-background:new 0 0 289 41;" xml:space="preserve">
<style type="text/css">
	.st0{display:none;fill:#FF4FFF;}
	.st1{fill:#FFFFFF;}
</style>
<path class="st0" d="M0.2,36.8V4.6h5.1V22L4,21.5l14.5-17h6.4L12.1,19.7l0.3-3.6l13.1,20.8h-6L10,22l-4.7,5.5v9.3H0.2z"/>
<g>
	<path class="st1" d="M5.6,4.6L5.6,4.6C2.5,4.6,0,7.1,0,10.1v23.8c0,3.1,2.5,5.6,5.6,5.6l0,0c3.1,0,5.6-2.5,5.6-5.6V10.1
		C11.2,7.1,8.7,4.6,5.6,4.6z"/>
	<path class="st1" d="M34.2,7.2c-2.1-2.1-5.6-2.1-7.7,0L15.2,18.5l-0.1,0.1c-1.1,1.1-1.5,2.5-1.5,3.9s0.6,2.8,1.5,3.9l0.1,0.1
		L26.6,38c2.1,2.1,5.6,2.1,7.7,0s2.1-5.6,0-7.7l-7.7-7.7l7.7-7.7C36.3,12.8,36.3,9.3,34.2,7.2z"/>
</g>
</svg>
