<?xml version="1.0" encoding="utf-8"?>
<!-- Generator: Adobe Illustrator 24.1.0, SVG Export Plug-In . SVG Version: 6.00 Build 0)  -->
<svg version="1.1" id="Layer_1" xmlns="http://www.w3.org/2000/svg" xmlns:xlink="http://www.w3.org/1999/xlink" x="0px" y="0px"
	 viewBox="0 0 289 24.6" style="enable-background:new 0 0 289 24.6;" xml:space="preserve">
<style type="text/css">
	.st0{fill:#FFFFFF;}
</style>
<g>
	<path class="st0" d="M0,19V0.1h6.2c1.9,0,3.5,0.4,4.9,1.2c1.4,0.8,2.5,1.9,3.2,3.3c0.8,1.4,1.1,3.1,1.1,5c0,1.9-0.4,3.6-1.1,5
		c-0.8,1.4-1.8,2.5-3.2,3.3c-1.4,0.8-3,1.2-4.9,1.2H0z M2,17.1h4.2c1.5,0,2.7-0.3,3.8-0.9s1.9-1.5,2.5-2.6c0.6-1.1,0.9-2.5,0.9-4
		c0-1.5-0.3-2.9-0.9-4c-0.6-1.1-1.4-2-2.5-2.6C8.9,2.3,7.7,2,6.2,2H2V17.1z"/>
	<path class="st0" d="M18.6,2.9V0.1h1.9v2.8H18.6z M18.6,19V5.4h1.9V19H18.6z"/>
	<path class="st0" d="M24.4,19V5.4h1.9v2.2L26,7.3c0.3-0.6,0.8-1.2,1.5-1.5c0.7-0.4,1.4-0.6,2.4-0.6h0.9v1.9h-1.2
		c-1,0-1.8,0.3-2.4,0.9c-0.6,0.6-0.9,1.5-0.9,2.6V19H24.4z"/>
	<path class="st0" d="M39.2,19.3c-1.3,0-2.4-0.3-3.4-0.9c-1-0.6-1.8-1.5-2.4-2.6c-0.6-1.1-0.9-2.3-0.9-3.7s0.3-2.6,0.9-3.6
		c0.6-1.1,1.4-1.9,2.4-2.5c1-0.6,2.1-0.9,3.3-0.9c1,0,1.9,0.2,2.6,0.5c0.8,0.4,1.4,0.9,2,1.5c0.5,0.6,1,1.3,1.2,2.1
		c0.3,0.8,0.4,1.6,0.4,2.4c0,0.2,0,0.4,0,0.6c0,0.2,0,0.4-0.1,0.6H33.6V11h10.4l-0.9,0.8c0.2-0.9,0-1.8-0.3-2.5S41.9,8,41.3,7.5
		c-0.7-0.4-1.4-0.6-2.3-0.6c-0.8,0-1.6,0.2-2.3,0.7c-0.7,0.4-1.3,1.1-1.7,1.8s-0.6,1.7-0.5,2.8c-0.1,1.1,0.1,2,0.5,2.8
		c0.4,0.8,1,1.4,1.8,1.9c0.8,0.4,1.6,0.7,2.4,0.7c1,0,1.8-0.2,2.5-0.7c0.7-0.5,1.2-1.1,1.7-1.8l1.6,0.9c-0.3,0.6-0.7,1.2-1.2,1.7
		s-1.2,0.9-2,1.2C41,19.2,40.1,19.3,39.2,19.3z"/>
	<path class="st0" d="M54.8,19.3c-1.3,0-2.5-0.3-3.5-0.9c-1-0.6-1.8-1.5-2.4-2.6c-0.6-1.1-0.9-2.3-0.9-3.6c0-1.4,0.3-2.6,0.9-3.6
		s1.4-1.9,2.4-2.5c1-0.6,2.2-0.9,3.5-0.9c0.8,0,1.6,0.2,2.4,0.5c0.7,0.3,1.4,0.7,2,1.2c0.6,0.5,1,1.1,1.3,1.8l-1.7,0.9
		c-0.3-0.7-0.9-1.3-1.5-1.8C56.5,7.2,55.7,7,54.8,7c-0.9,0-1.7,0.2-2.4,0.7c-0.7,0.4-1.3,1.1-1.7,1.9c-0.4,0.8-0.6,1.7-0.6,2.7
		c0,1,0.2,1.9,0.6,2.7c0.4,0.8,1,1.4,1.7,1.9c0.7,0.5,1.5,0.7,2.4,0.7c0.9,0,1.7-0.2,2.4-0.7s1.2-1.1,1.6-1.8l1.7,0.9
		c-0.3,0.7-0.7,1.3-1.3,1.8c-0.6,0.5-1.2,0.9-2,1.2C56.5,19.2,55.7,19.3,54.8,19.3z"/>
	<path class="st0" d="M69,19.2c-1.2,0-2.2-0.4-2.8-1.1c-0.7-0.7-1-1.7-1-3V7.3h-2.5V5.4h0.6c0.6,0,1-0.2,1.4-0.6
		c0.3-0.4,0.5-0.9,0.5-1.4V2.3h1.9v3.2h3v1.9h-3v7.7c0,0.5,0.1,0.9,0.2,1.2c0.1,0.3,0.4,0.6,0.7,0.8c0.3,0.2,0.8,0.3,1.3,0.3
		c0.1,0,0.3,0,0.5,0c0.2,0,0.3,0,0.5-0.1V19c-0.2,0.1-0.4,0.1-0.7,0.1C69.4,19.2,69.2,19.2,69,19.2z"/>
	<path class="st0" d="M79.6,19.3c-1.3,0-2.5-0.3-3.5-0.9c-1.1-0.6-1.9-1.5-2.5-2.5c-0.6-1.1-0.9-2.3-0.9-3.7c0-1.4,0.3-2.6,0.9-3.6
		C74.2,7.5,75,6.7,76,6c1-0.6,2.2-0.9,3.5-0.9c1.3,0,2.5,0.3,3.5,0.9c1,0.6,1.9,1.4,2.5,2.5c0.6,1.1,0.9,2.3,0.9,3.7
		c0,1.4-0.3,2.6-0.9,3.7c-0.6,1.1-1.5,1.9-2.5,2.5C82,19,80.8,19.3,79.6,19.3z M79.6,17.4c0.9,0,1.7-0.2,2.5-0.7
		c0.7-0.5,1.3-1.1,1.8-1.9c0.4-0.8,0.6-1.7,0.6-2.7c0-1-0.2-1.9-0.6-2.6c-0.4-0.8-1-1.4-1.8-1.9C81.3,7.2,80.5,7,79.6,7
		c-0.9,0-1.7,0.2-2.5,0.7c-0.7,0.5-1.3,1.1-1.8,1.9c-0.4,0.8-0.7,1.7-0.7,2.6c0,1,0.2,1.9,0.7,2.7c0.4,0.8,1,1.4,1.8,1.9
		S78.7,17.4,79.6,17.4z"/>
	<path class="st0" d="M89.8,19V5.4h1.9v2.2l-0.3-0.3c0.3-0.6,0.8-1.2,1.5-1.5c0.7-0.4,1.4-0.6,2.4-0.6h0.9v1.9H95
		c-1,0-1.8,0.3-2.4,0.9c-0.6,0.6-0.9,1.5-0.9,2.6V19H89.8z"/>
	<path class="st0" d="M109.1,19.3c-1.3,0-2.5-0.3-3.5-0.9c-1.1-0.6-1.9-1.5-2.5-2.5c-0.6-1.1-0.9-2.3-0.9-3.7c0-1.4,0.3-2.6,0.9-3.6
		c0.6-1.1,1.4-1.9,2.5-2.5s2.2-0.9,3.5-0.9c1.3,0,2.5,0.3,3.5,0.9c1,0.6,1.9,1.4,2.5,2.5c0.6,1.1,0.9,2.3,0.9,3.7
		c0,1.4-0.3,2.6-0.9,3.7c-0.6,1.1-1.5,1.9-2.5,2.5C111.5,19,110.4,19.3,109.1,19.3z M109.1,17.4c0.9,0,1.7-0.2,2.5-0.7
		c0.7-0.5,1.3-1.1,1.8-1.9c0.4-0.8,0.6-1.7,0.6-2.7c0-1-0.2-1.9-0.6-2.6c-0.4-0.8-1-1.4-1.8-1.9C110.9,7.2,110,7,109.1,7
		c-0.9,0-1.7,0.2-2.5,0.7c-0.7,0.5-1.3,1.1-1.8,1.9c-0.4,0.8-0.7,1.7-0.7,2.6c0,1,0.2,1.9,0.7,2.7s1,1.4,1.8,1.9
		C107.4,17.2,108.2,17.4,109.1,17.4z"/>
	<path class="st0" d="M120.3,19V7.3h-2.7V5.4h2.7V4.2c0-0.9,0.2-1.7,0.6-2.4c0.4-0.7,1-1.1,1.7-1.5c0.7-0.3,1.4-0.5,2.2-0.5
		c0.2,0,0.4,0,0.6,0c0.2,0,0.4,0.1,0.5,0.1v1.7c-0.1,0-0.3-0.1-0.5-0.1c-0.2,0-0.3,0-0.4,0c-0.8,0-1.5,0.2-2,0.6
		c-0.5,0.4-0.8,1.1-0.8,2v1.2h3.3v1.9h-3.3V19H120.3z"/>
	<path class="st0" d="M133.4,19V0.1h6.5c1.2,0,2.3,0.2,3.3,0.7c0.9,0.5,1.7,1.2,2.2,2c0.5,0.9,0.8,1.9,0.8,3c0,1.2-0.3,2.2-0.8,3
		c-0.5,0.9-1.2,1.5-2.2,2c-0.9,0.5-2,0.7-3.3,0.7h-4.5V19H133.4z M135.5,9.8h4.6c0.8,0,1.5-0.2,2.1-0.5c0.6-0.3,1.1-0.8,1.4-1.3
		c0.3-0.6,0.5-1.3,0.5-2.1c0-0.8-0.2-1.5-0.5-2.1c-0.3-0.6-0.8-1-1.4-1.3c-0.6-0.3-1.3-0.5-2.1-0.5h-4.6V9.8z"/>
	<path class="st0" d="M149.5,19V-0.2h1.9v8.3L151,8c0.3-0.9,0.9-1.6,1.7-2.1c0.8-0.5,1.7-0.8,2.7-0.8c1,0,1.8,0.2,2.6,0.7
		c0.8,0.4,1.4,1,1.8,1.8c0.4,0.8,0.7,1.6,0.7,2.6V19h-1.9v-8.1c0-0.8-0.2-1.5-0.5-2.1c-0.3-0.6-0.7-1-1.3-1.3
		C156.3,7.2,155.7,7,155,7c-0.7,0-1.3,0.2-1.8,0.5c-0.5,0.3-1,0.8-1.3,1.3c-0.3,0.6-0.5,1.3-0.5,2.1V19H149.5z"/>
	<path class="st0" d="M170.4,19.3c-1.3,0-2.5-0.3-3.5-0.9c-1-0.6-1.9-1.5-2.5-2.5c-0.6-1.1-0.9-2.3-0.9-3.7c0-1.4,0.3-2.6,0.9-3.6
		c0.6-1.1,1.4-1.9,2.5-2.5c1-0.6,2.2-0.9,3.5-0.9c1.3,0,2.5,0.3,3.5,0.9c1,0.6,1.9,1.4,2.5,2.5c0.6,1.1,0.9,2.3,0.9,3.7
		c0,1.4-0.3,2.6-0.9,3.7c-0.6,1.1-1.5,1.9-2.5,2.5C172.9,19,171.7,19.3,170.4,19.3z M170.4,17.4c0.9,0,1.7-0.2,2.5-0.7
		c0.7-0.5,1.3-1.1,1.8-1.9c0.4-0.8,0.6-1.7,0.6-2.7c0-1-0.2-1.9-0.6-2.6c-0.4-0.8-1-1.4-1.8-1.9c-0.7-0.5-1.6-0.7-2.5-0.7
		c-0.9,0-1.7,0.2-2.5,0.7c-0.7,0.5-1.3,1.1-1.8,1.9c-0.4,0.8-0.7,1.7-0.7,2.6c0,1,0.2,1.9,0.7,2.7s1,1.4,1.8,1.9
		S169.5,17.4,170.4,17.4z"/>
	<path class="st0" d="M185.7,19.2c-1.2,0-2.2-0.4-2.8-1.1c-0.7-0.7-1-1.7-1-3V7.3h-2.5V5.4h0.6c0.6,0,1-0.2,1.4-0.6
		c0.3-0.4,0.5-0.9,0.5-1.4V2.3h1.9v3.2h3v1.9h-3v7.7c0,0.5,0.1,0.9,0.2,1.2c0.1,0.3,0.4,0.6,0.7,0.8c0.3,0.2,0.8,0.3,1.3,0.3
		c0.1,0,0.3,0,0.5,0c0.2,0,0.3,0,0.5-0.1V19c-0.2,0.1-0.4,0.1-0.7,0.1C186,19.2,185.8,19.2,185.7,19.2z"/>
	<path class="st0" d="M196.2,19.3c-1.3,0-2.5-0.3-3.5-0.9c-1-0.6-1.9-1.5-2.5-2.5c-0.6-1.1-0.9-2.3-0.9-3.7c0-1.4,0.3-2.6,0.9-3.6
		c0.6-1.1,1.4-1.9,2.5-2.5c1-0.6,2.2-0.9,3.5-0.9c1.3,0,2.5,0.3,3.5,0.9c1,0.6,1.9,1.4,2.5,2.5c0.6,1.1,0.9,2.3,0.9,3.7
		c0,1.4-0.3,2.6-0.9,3.7c-0.6,1.1-1.5,1.9-2.5,2.5C198.6,19,197.4,19.3,196.2,19.3z M196.2,17.4c0.9,0,1.7-0.2,2.5-0.7
		c0.7-0.5,1.3-1.1,1.8-1.9c0.4-0.8,0.6-1.7,0.6-2.7c0-1-0.2-1.9-0.6-2.6c-0.4-0.8-1-1.4-1.8-1.9c-0.7-0.5-1.6-0.7-2.5-0.7
		c-0.9,0-1.7,0.2-2.5,0.7c-0.7,0.5-1.3,1.1-1.8,1.9c-0.4,0.8-0.7,1.7-0.7,2.6c0,1,0.2,1.9,0.7,2.7c0.4,0.8,1,1.4,1.8,1.9
		S195.3,17.4,196.2,17.4z"/>
	<path class="st0" d="M212.9,24.6c-0.9,0-1.8-0.1-2.6-0.4c-0.8-0.3-1.5-0.7-2-1.2c-0.6-0.5-1-1.1-1.3-1.7l1.8-0.9
		c0.3,0.6,0.8,1.2,1.4,1.7c0.7,0.5,1.6,0.7,2.7,0.7c0.8,0,1.6-0.2,2.3-0.5c0.7-0.3,1.3-0.8,1.7-1.4c0.4-0.6,0.6-1.4,0.6-2.3v-3
		l0.3,0.3c-0.5,1-1.2,1.7-2.1,2.3c-0.9,0.5-1.9,0.8-3,0.8c-1.3,0-2.4-0.3-3.4-0.9c-1-0.6-1.8-1.4-2.4-2.5c-0.6-1-0.9-2.2-0.9-3.5
		c0-1.3,0.3-2.4,0.9-3.5c0.6-1,1.4-1.9,2.4-2.5c1-0.6,2.2-0.9,3.4-0.9c1.1,0,2.1,0.3,3,0.8c0.9,0.5,1.6,1.2,2.1,2.1l-0.3,0.5v-3h1.9
		v13.1c0,1.2-0.3,2.2-0.8,3.1c-0.6,0.9-1.3,1.7-2.3,2.2C215.3,24.4,214.1,24.6,212.9,24.6z M212.7,16.9c0.9,0,1.7-0.2,2.4-0.7
		c0.7-0.4,1.3-1.1,1.7-1.8c0.4-0.8,0.6-1.6,0.6-2.5c0-0.9-0.2-1.7-0.6-2.5c-0.4-0.8-1-1.4-1.7-1.8c-0.7-0.4-1.5-0.7-2.4-0.7
		c-0.9,0-1.7,0.2-2.4,0.7c-0.7,0.4-1.3,1-1.7,1.8c-0.4,0.7-0.6,1.6-0.6,2.5c0,0.9,0.2,1.7,0.6,2.5c0.4,0.8,1,1.4,1.7,1.8
		C211,16.7,211.8,16.9,212.7,16.9z"/>
	<path class="st0" d="M223.3,19V5.4h1.9v2.2l-0.3-0.3c0.3-0.6,0.8-1.2,1.5-1.5c0.7-0.4,1.4-0.6,2.4-0.6h0.9v1.9h-1.2
		c-1,0-1.8,0.3-2.4,0.9c-0.6,0.6-0.9,1.5-0.9,2.6V19H223.3z"/>
	<path class="st0" d="M235.8,19.3c-0.9,0-1.6-0.2-2.3-0.5c-0.7-0.3-1.2-0.8-1.6-1.4c-0.4-0.6-0.6-1.2-0.6-2c0-0.7,0.2-1.4,0.5-1.9
		s0.8-1.1,1.4-1.5c0.6-0.4,1.5-0.7,2.5-0.9l5.3-0.9V12l-4.9,0.8c-1,0.2-1.7,0.5-2.1,0.9c-0.4,0.5-0.6,1-0.6,1.6
		c0,0.6,0.2,1.1,0.7,1.5c0.5,0.4,1.1,0.6,1.9,0.6c0.9,0,1.7-0.2,2.4-0.6c0.7-0.4,1.2-0.9,1.6-1.6c0.4-0.7,0.6-1.4,0.6-2.3V9.7
		c0-0.8-0.3-1.5-0.9-2c-0.6-0.5-1.4-0.8-2.3-0.8c-0.8,0-1.6,0.2-2.2,0.6c-0.6,0.4-1.1,1-1.4,1.6L232,8.2c0.3-0.6,0.7-1.1,1.2-1.6
		c0.5-0.5,1.2-0.9,1.9-1.1c0.7-0.3,1.4-0.4,2.2-0.4c1,0,1.9,0.2,2.7,0.6c0.8,0.4,1.4,0.9,1.8,1.6s0.6,1.5,0.6,2.4V19h-1.9v-2.7
		l0.3,0.3c-0.2,0.5-0.6,1-1.1,1.4c-0.5,0.4-1.1,0.7-1.8,1S236.6,19.3,235.8,19.3z"/>
	<path class="st0" d="M246.4,24.1V5.4h1.9v3L248,7.9c0.5-0.9,1.3-1.5,2.2-2.1c0.9-0.5,1.9-0.8,3.1-0.8c1.3,0,2.4,0.3,3.4,0.9
		c1,0.6,1.8,1.5,2.4,2.5c0.6,1.1,0.9,2.3,0.9,3.7c0,1.4-0.3,2.6-0.9,3.6c-0.6,1.1-1.4,1.9-2.4,2.5c-1,0.6-2.2,0.9-3.4,0.9
		c-1.2,0-2.2-0.3-3.2-0.8c-0.9-0.5-1.6-1.3-2.1-2.3l0.3-0.3v8.1H246.4z M253.2,17.4c0.9,0,1.7-0.2,2.5-0.7c0.7-0.5,1.3-1.1,1.7-1.9
		c0.4-0.8,0.6-1.7,0.6-2.7c0-1-0.2-1.9-0.6-2.7c-0.4-0.8-1-1.4-1.7-1.9c-0.7-0.5-1.5-0.7-2.5-0.7c-0.9,0-1.7,0.2-2.5,0.7
		c-0.7,0.5-1.3,1.1-1.8,1.9c-0.4,0.8-0.6,1.7-0.6,2.7c0,1,0.2,1.9,0.6,2.7c0.4,0.8,1,1.4,1.8,1.9C251.4,17.2,252.2,17.4,253.2,17.4z
		"/>
	<path class="st0" d="M263.3,19V-0.2h1.9v8.3L264.8,8c0.3-0.9,0.9-1.6,1.7-2.1c0.8-0.5,1.7-0.8,2.7-0.8c1,0,1.8,0.2,2.6,0.7
		c0.8,0.4,1.4,1,1.8,1.8c0.4,0.8,0.7,1.6,0.7,2.6V19h-1.9v-8.1c0-0.8-0.2-1.5-0.5-2.1c-0.3-0.6-0.7-1-1.3-1.3
		c-0.5-0.3-1.1-0.5-1.8-0.5c-0.7,0-1.3,0.2-1.8,0.5c-0.5,0.3-1,0.8-1.3,1.3c-0.3,0.6-0.5,1.3-0.5,2.1V19H263.3z"/>
	<path class="st0" d="M277.9,24.6c-0.3,0-0.5,0-0.8-0.1c-0.3,0-0.6-0.1-0.8-0.2v-1.8c0.2,0,0.4,0,0.6,0.1c0.3,0,0.5,0.1,0.8,0.1
		c0.8,0,1.5-0.2,1.9-0.5c0.4-0.3,0.9-1,1.3-2l0.9-2l-0.1,1.7l-5.8-14.4h2.1l4.7,11.9h-0.5l4.7-11.9h2.1l-6.2,15.3
		c-0.3,0.7-0.6,1.3-1,1.9c-0.4,0.6-0.9,1.1-1.6,1.4C279.6,24.4,278.8,24.6,277.9,24.6z"/>
</g>
</svg>
