<?xml version="1.0" encoding="utf-8"?>
<!-- Generator: Adobe Illustrator 24.1.0, SVG Export Plug-In . SVG Version: 6.00 Build 0)  -->
<svg version="1.1" id="Layer_1" xmlns="http://www.w3.org/2000/svg" xmlns:xlink="http://www.w3.org/1999/xlink" x="0px" y="0px"
	 viewBox="0 0 289 41" style="enable-background:new 0 0 289 41;" xml:space="preserve">
<style type="text/css">
	.st0{fill:#FFFFFF;}
</style>
<g>
	<path class="st0" d="M0.2,36.8V4.6h5.1V22L4,21.5l14.5-17h6.4L12.1,19.7l0.3-3.6l13.1,20.8h-6L10,22l-4.7,5.5v9.3H0.2z"/>
	<path class="st0" d="M38.9,37.3c-2.3,0-4.4-0.5-6.2-1.6s-3.2-2.6-4.2-4.4c-1-1.9-1.5-3.9-1.5-6.2c0-2.4,0.5-4.5,1.5-6.3
		s2.4-3.3,4.1-4.3c1.7-1.1,3.7-1.6,5.9-1.6c1.8,0,3.4,0.3,4.8,0.9c1.4,0.6,2.6,1.4,3.5,2.5c1,1.1,1.7,2.3,2.2,3.6
		c0.5,1.4,0.8,2.8,0.8,4.3c0,0.4,0,0.8,0,1.2c0,0.4-0.1,0.8-0.2,1.1H30.8v-3.9h15.8l-2.3,1.8c0.3-1.4,0.2-2.7-0.3-3.8
		c-0.5-1.1-1.2-2-2.2-2.6s-2.1-1-3.4-1c-1.3,0-2.4,0.3-3.4,1c-1,0.6-1.8,1.6-2.3,2.8c-0.5,1.2-0.8,2.7-0.6,4.3
		c-0.1,1.6,0.1,3,0.7,4.2c0.6,1.2,1.4,2.1,2.5,2.8c1.1,0.7,2.3,1,3.7,1s2.7-0.3,3.6-1c1-0.6,1.8-1.5,2.4-2.5l4,2
		c-0.5,1.1-1.2,2.1-2.1,2.9c-1,0.9-2.1,1.6-3.5,2.1C42,37.1,40.5,37.3,38.9,37.3z"/>
	<path class="st0" d="M54.4,10.2V4.6h4.9v5.6H54.4z M54.4,36.8V13.4h4.9v23.4H54.4z"/>
	<path class="st0" d="M75.2,37.1c-2.5,0-4.4-0.7-5.7-2.1c-1.4-1.4-2-3.3-2-5.8V17.8h-4.2v-4.5h0.6c1.1,0,2-0.3,2.6-1
		c0.6-0.6,0.9-1.5,0.9-2.6V8h4.9v5.4h5.3v4.5h-5.3V29c0,0.8,0.1,1.5,0.4,2.1s0.7,1,1.3,1.3c0.6,0.3,1.3,0.5,2.2,0.5
		c0.2,0,0.5,0,0.8,0s0.6-0.1,0.8-0.1V37c-0.4,0.1-0.9,0.1-1.3,0.2S75.5,37.1,75.2,37.1z"/>
	<path class="st0" d="M82.6,36.8V4.1h4.9V18l-0.8-0.6c0.6-1.5,1.5-2.6,2.8-3.4c1.3-0.8,2.7-1.1,4.4-1.1c1.7,0,3.3,0.4,4.6,1.1
		c1.3,0.8,2.4,1.8,3.1,3.1s1.1,2.8,1.1,4.5v15.1h-4.9V23c0-1.2-0.2-2.1-0.6-3c-0.4-0.8-1-1.5-1.8-1.9c-0.8-0.5-1.7-0.7-2.7-0.7
		s-1.9,0.2-2.7,0.7c-0.8,0.5-1.4,1.1-1.9,1.9c-0.4,0.8-0.7,1.8-0.7,3v13.8H82.6z"/>
	<path class="st0" d="M116,36.8V4.6h11.7c2.2,0,4.1,0.4,5.7,1.2c1.7,0.8,2.9,1.9,3.9,3.5c0.9,1.5,1.4,3.3,1.4,5.4s-0.5,3.9-1.4,5.4
		s-2.2,2.7-3.9,3.5c-1.6,0.8-3.5,1.2-5.7,1.2h-6.6v12.1H116V36.8z M121.1,20.1h6.7c1.2,0,2.2-0.2,3-0.7c0.9-0.5,1.5-1.1,2-1.9
		s0.7-1.8,0.7-2.9s-0.2-2.1-0.7-2.9c-0.5-0.8-1.1-1.5-2-1.9c-0.9-0.5-1.9-0.7-3-0.7h-6.7C121.1,9.1,121.1,20.1,121.1,20.1z"/>
	<path class="st0" d="M153.5,37.3c-2.3,0-4.4-0.5-6.2-1.6s-3.2-2.6-4.2-4.4c-1-1.9-1.5-3.9-1.5-6.2c0-2.4,0.5-4.5,1.5-6.3
		s2.4-3.3,4.1-4.3c1.7-1.1,3.7-1.6,5.9-1.6c1.8,0,3.4,0.3,4.8,0.9c1.4,0.6,2.6,1.4,3.5,2.5c1,1.1,1.7,2.3,2.2,3.6
		c0.5,1.4,0.8,2.8,0.8,4.3c0,0.4,0,0.8,0,1.2c0,0.4-0.1,0.8-0.2,1.1h-18.6v-3.9h15.8l-2.3,1.8c0.3-1.4,0.2-2.7-0.3-3.8
		c-0.5-1.1-1.2-2-2.2-2.6s-2.1-1-3.4-1c-1.3,0-2.4,0.3-3.4,1s-1.8,1.6-2.3,2.8c-0.5,1.2-0.8,2.7-0.6,4.3c-0.1,1.6,0.1,3,0.7,4.2
		c0.6,1.2,1.4,2.1,2.5,2.8c1.1,0.7,2.3,1,3.7,1s2.7-0.3,3.6-1c1-0.6,1.8-1.5,2.4-2.5l4,2c-0.5,1.1-1.2,2.1-2.1,2.9s-2.1,1.6-3.5,2.1
		C156.6,37.1,155.1,37.3,153.5,37.3z"/>
	<path class="st0" d="M169.1,36.8V13.4h4.7V18l-0.6-0.6c0.6-1.5,1.5-2.6,2.8-3.4c1.3-0.8,2.7-1.1,4.4-1.1s3.3,0.4,4.6,1.1
		c1.3,0.8,2.4,1.8,3.1,3.1c0.7,1.3,1.1,2.9,1.1,4.6v15.1h-4.9V23c0-1.2-0.2-2.1-0.6-3c-0.4-0.8-1-1.5-1.8-1.9
		c-0.8-0.5-1.7-0.7-2.7-0.7s-1.9,0.2-2.7,0.7s-1.4,1.1-1.8,1.9c-0.4,0.8-0.6,1.8-0.6,3v13.8H169.1z"/>
	<path class="st0" d="M205.2,37.3c-2.2,0-4.2-0.5-6-1.6s-3.2-2.5-4.2-4.4s-1.5-3.9-1.5-6.2s0.5-4.4,1.5-6.2c1-1.8,2.4-3.3,4.2-4.4
		s3.8-1.6,6-1.6c1.8,0,3.5,0.4,5,1.1c1.5,0.8,2.6,1.8,3.4,3.1l-0.8,1.1V4.1h4.9v32.7H213V32l0.6,0.9c-0.8,1.4-2,2.5-3.4,3.2
		C208.7,36.9,207,37.3,205.2,37.3z M205.7,32.8c1.4,0,2.6-0.3,3.6-1c1.1-0.7,1.9-1.6,2.5-2.7s0.9-2.5,0.9-4c0-1.4-0.3-2.7-0.9-3.9
		c-0.6-1.2-1.5-2.1-2.5-2.7c-1.1-0.7-2.3-1-3.6-1s-2.6,0.3-3.7,1c-1.1,0.7-1.9,1.6-2.6,2.7c-0.6,1.1-0.9,2.4-0.9,3.9s0.3,2.8,0.9,4
		s1.4,2.1,2.5,2.7C203.1,32.4,204.3,32.8,205.7,32.8z"/>
	<path class="st0" d="M223.4,36.8V13.4h4.7v4.8l-0.4-0.7c0.5-1.6,1.4-2.7,2.5-3.4c1.2-0.7,2.5-1,4.2-1h1.4v4.5h-2
		c-1.6,0-2.9,0.5-3.9,1.5s-1.5,2.4-1.5,4.2v13.5H223.4z"/>
	<path class="st0" d="M250,37.3c-2.3,0-4.4-0.5-6.2-1.6s-3.2-2.6-4.2-4.4c-1-1.9-1.5-3.9-1.5-6.2c0-2.4,0.5-4.5,1.5-6.3
		s2.4-3.3,4.1-4.3s3.7-1.6,5.9-1.6c1.8,0,3.4,0.3,4.8,0.9c1.4,0.6,2.6,1.4,3.5,2.5c1,1.1,1.7,2.3,2.2,3.6c0.5,1.4,0.8,2.8,0.8,4.3
		c0,0.4,0,0.8,0,1.2c0,0.4-0.1,0.8-0.2,1.1H242v-3.9h15.8l-2.3,1.8c0.3-1.4,0.2-2.7-0.3-3.8c-0.5-1.1-1.2-2-2.2-2.6s-2.1-1-3.4-1
		c-1.3,0-2.4,0.3-3.4,1c-1,0.6-1.8,1.6-2.3,2.8c-0.5,1.2-0.8,2.7-0.6,4.3c-0.1,1.6,0.1,3,0.7,4.2c0.6,1.2,1.4,2.1,2.5,2.8
		c1.1,0.7,2.3,1,3.7,1s2.7-0.3,3.6-1c1-0.6,1.8-1.5,2.4-2.5l4,2c-0.5,1.1-1.2,2.1-2.1,2.9c-1,0.9-2.1,1.6-3.5,2.1
		C253.1,37.1,251.6,37.3,250,37.3z"/>
	<path class="st0" d="M276.4,37.3c-2.2,0-4.2-0.5-6-1.6s-3.2-2.5-4.2-4.4s-1.5-3.9-1.5-6.2s0.5-4.4,1.5-6.2c1-1.8,2.4-3.3,4.2-4.4
		c1.8-1.1,3.8-1.6,6-1.6c1.8,0,3.5,0.4,5,1.1c1.5,0.8,2.6,1.8,3.4,3.1l-0.8,1.1V4.1h4.9v32.7h-4.7V32l0.6,0.9
		c-0.8,1.4-2,2.5-3.4,3.2C279.8,36.9,278.2,37.3,276.4,37.3z M276.9,32.8c1.4,0,2.6-0.3,3.6-1c1.1-0.7,1.9-1.6,2.5-2.7
		s0.9-2.5,0.9-4c0-1.4-0.3-2.7-0.9-3.9c-0.6-1.2-1.5-2.1-2.5-2.7c-1.1-0.7-2.3-1-3.6-1s-2.6,0.3-3.7,1s-1.9,1.6-2.6,2.7
		c-0.6,1.1-0.9,2.4-0.9,3.9s0.3,2.8,0.9,4s1.4,2.1,2.5,2.7C274.3,32.4,275.5,32.8,276.9,32.8z"/>
</g>
</svg>
